<svg xmlns="http://www.w3.org/2000/svg" width="11.958" height="11.958" viewBox="0 0 11.958 11.958">
  <path id="Combined_Shape" data-name="Combined Shape" d="M9.718,11.544,5.858,7.685,2,11.544a1,1,0,0,1-1.414,0l-.413-.412a1,1,0,0,1,0-1.414l3.86-3.86L.172,2a1,1,0,0,1,0-1.414L.585.172A1,1,0,0,1,2,.172l3.859,3.86L9.718.172a1,1,0,0,1,1.414,0l.412.413a1,1,0,0,1,0,1.414L7.685,5.858l3.859,3.86a1,1,0,0,1,0,1.414l-.412.412a1,1,0,0,1-1.414,0Z" transform="translate(0.121 0.121)" fill="#00a1d9" opacity="0.3"/>
</svg>
